<svg width="128" height="128" viewBox="0 0 128 128" fill="none" xmlns="http://www.w3.org/2000/svg">
  <rect width="128" height="128" rx="8" fill="#F3F4F6"/>
  <path d="M64 32C46.3269 32 32 46.3269 32 64C32 81.6731 46.3269 96 64 96C81.6731 96 96 81.6731 96 64C96 46.3269 81.6731 32 64 32ZM64 88C50.7452 88 40 77.2548 40 64C40 50.7452 50.7452 40 64 40C77.2548 40 88 50.7452 88 64C88 77.2548 77.2548 88 64 88Z" fill="#D1D5DB"/>
  <path d="M64 52C58.4772 52 54 56.4772 54 62V66C54 68.2091 55.7909 70 58 70C60.2091 70 62 68.2091 62 66V62C62 60.8954 62.8954 60 64 60C65.1046 60 66 60.8954 66 62V66C66 68.2091 67.7909 70 70 70C72.2091 70 74 68.2091 74 66V62C74 56.4772 69.5228 52 64 52Z" fill="#9CA3AF"/>
</svg>
